<svg xmlns="http://www.w3.org/2000/svg" version="1.1" xmlns:xlink="http://www.w3.org/1999/xlink" xmlns:svgjs="http://svgjs.dev/svgjs" width="1440" height="900" preserveAspectRatio="none" viewBox="0 0 1440 900"><g mask="url(&quot;#SvgjsMask1814&quot;)" fill="none"><rect width="1440" height="900" x="0" y="0" fill="url(&quot;#SvgjsLinearGradient1815&quot;)"></rect><g mask="url(&quot;#SvgjsMask1816&quot;)"><path d="M391.5 418.5L418.5 445.5L445.5 445.5L472.5 445.5M553.5 418.5L580.5 445.5L607.5 445.5M283.5 418.5L310.5 445.5M337.5 418.5L364.5 445.5M796.5 418.5L823.5 391.5L850.5 391.5M850.5 418.5L877.5 445.5L904.5 445.5L931.5 445.5L958.5 445.5L985.5 445.5M526.5 418.5L553.5 445.5M229.5 418.5L256.5 445.5L283.5 445.5M-13.5 445.5L13.5 445.5L40.5 445.5L67.5 445.5L94.5 445.5L121.5 445.5L148.5 445.5L175.5 445.5L202.5 445.5L229.5 418.5L256.5 418.5L283.5 418.5L310.5 418.5L337.5 418.5L364.5 418.5L391.5 418.5L418.5 418.5L445.5 418.5L472.5 418.5L499.5 418.5L526.5 418.5L553.5 418.5L580.5 418.5L607.5 418.5L634.5 418.5L661.5 391.5L688.5 391.5L715.5 391.5L742.5 418.5L769.5 418.5L796.5 418.5L823.5 418.5L850.5 418.5L877.5 418.5" stroke="rgba(200, 220, 9, 1)" stroke-width="4.5"></path><path d="M870.75 418.5 a6.75 6.75 0 1 0 13.5 0 a6.75 6.75 0 1 0 -13.5 0zM465.75 445.5 a6.75 6.75 0 1 0 13.5 0 a6.75 6.75 0 1 0 -13.5 0zM600.75 445.5 a6.75 6.75 0 1 0 13.5 0 a6.75 6.75 0 1 0 -13.5 0zM303.75 445.5 a6.75 6.75 0 1 0 13.5 0 a6.75 6.75 0 1 0 -13.5 0zM357.75 445.5 a6.75 6.75 0 1 0 13.5 0 a6.75 6.75 0 1 0 -13.5 0zM843.75 391.5 a6.75 6.75 0 1 0 13.5 0 a6.75 6.75 0 1 0 -13.5 0zM978.75 445.5 a6.75 6.75 0 1 0 13.5 0 a6.75 6.75 0 1 0 -13.5 0zM546.75 445.5 a6.75 6.75 0 1 0 13.5 0 a6.75 6.75 0 1 0 -13.5 0zM276.75 445.5 a6.75 6.75 0 1 0 13.5 0 a6.75 6.75 0 1 0 -13.5 0z" fill="rgba(200, 220, 9, 1)"></path><path d="M607.5 499.5L634.5 472.5L661.5 472.5L688.5 472.5L715.5 472.5L742.5 472.5L769.5 445.5L796.5 445.5L823.5 445.5L850.5 445.5M850.5 499.5L877.5 526.5L904.5 526.5L931.5 526.5L958.5 526.5L985.5 526.5L1012.5 526.5L1039.5 526.5L1066.5 526.5L1093.5 526.5L1120.5 526.5L1147.5 526.5L1174.5 526.5M580.5 499.5L607.5 472.5M391.5 472.5L418.5 499.5L445.5 526.5L472.5 526.5M715.5 499.5L742.5 526.5L769.5 526.5L796.5 526.5L823.5 526.5L850.5 526.5L877.5 553.5M310.5 472.5L337.5 499.5L364.5 499.5L391.5 499.5L418.5 526.5M1012.5 472.5L1039.5 499.5L1066.5 499.5L1093.5 499.5L1120.5 499.5L1147.5 499.5L1174.5 499.5M1147.5 472.5L1174.5 445.5M418.5 472.5L445.5 472.5L472.5 472.5L499.5 472.5L526.5 472.5L553.5 472.5L580.5 472.5M229.5 472.5L256.5 499.5M904.5 499.5L931.5 472.5L958.5 472.5L985.5 472.5M-13.5 472.5L13.5 472.5L40.5 472.5L67.5 472.5L94.5 472.5L121.5 472.5L148.5 472.5L175.5 472.5L202.5 472.5L229.5 472.5L256.5 472.5L283.5 472.5L310.5 472.5L337.5 472.5L364.5 472.5L391.5 472.5L418.5 472.5L445.5 499.5L472.5 499.5L499.5 499.5L526.5 499.5L553.5 499.5L580.5 499.5L607.5 499.5L634.5 499.5L661.5 499.5L688.5 499.5L715.5 499.5L742.5 499.5L769.5 472.5L796.5 472.5L823.5 472.5L850.5 499.5L877.5 499.5L904.5 499.5L931.5 499.5L958.5 499.5L985.5 499.5L1012.5 472.5L1039.5 472.5L1066.5 472.5L1093.5 472.5L1120.5 472.5L1147.5 472.5L1174.5 472.5" stroke="rgba(200, 220, 9, 1)" stroke-width="4.5"></path><path d="M1167.75 472.5 a6.75 6.75 0 1 0 13.5 0 a6.75 6.75 0 1 0 -13.5 0zM843.75 445.5 a6.75 6.75 0 1 0 13.5 0 a6.75 6.75 0 1 0 -13.5 0zM1167.75 526.5 a6.75 6.75 0 1 0 13.5 0 a6.75 6.75 0 1 0 -13.5 0zM600.75 472.5 a6.75 6.75 0 1 0 13.5 0 a6.75 6.75 0 1 0 -13.5 0zM465.75 526.5 a6.75 6.75 0 1 0 13.5 0 a6.75 6.75 0 1 0 -13.5 0zM870.75 553.5 a6.75 6.75 0 1 0 13.5 0 a6.75 6.75 0 1 0 -13.5 0zM411.75 526.5 a6.75 6.75 0 1 0 13.5 0 a6.75 6.75 0 1 0 -13.5 0zM1167.75 499.5 a6.75 6.75 0 1 0 13.5 0 a6.75 6.75 0 1 0 -13.5 0zM1167.75 445.5 a6.75 6.75 0 1 0 13.5 0 a6.75 6.75 0 1 0 -13.5 0zM573.75 472.5 a6.75 6.75 0 1 0 13.5 0 a6.75 6.75 0 1 0 -13.5 0zM249.75 499.5 a6.75 6.75 0 1 0 13.5 0 a6.75 6.75 0 1 0 -13.5 0zM978.75 472.5 a6.75 6.75 0 1 0 13.5 0 a6.75 6.75 0 1 0 -13.5 0z" fill="rgba(200, 220, 9, 1)"></path><path d="M499.5 391.5L526.5 364.5M364.5 391.5L391.5 364.5M823.5 364.5L850.5 337.5L877.5 337.5L904.5 337.5L931.5 337.5M580.5 391.5L607.5 364.5L634.5 364.5M958.5 391.5L985.5 364.5L1012.5 364.5L1039.5 364.5M337.5 391.5L364.5 364.5M310.5 391.5L337.5 364.5M472.5 391.5L499.5 364.5M769.5 364.5L796.5 337.5L823.5 337.5L850.5 310.5L877.5 310.5L904.5 310.5M-13.5 418.5L13.5 418.5L40.5 418.5L67.5 418.5L94.5 418.5L121.5 418.5L148.5 418.5L175.5 418.5L202.5 418.5L229.5 391.5L256.5 391.5L283.5 391.5L310.5 391.5L337.5 391.5L364.5 391.5L391.5 391.5L418.5 391.5L445.5 391.5L472.5 391.5L499.5 391.5L526.5 391.5L553.5 391.5L580.5 391.5L607.5 391.5L634.5 391.5L661.5 364.5L688.5 364.5L715.5 364.5L742.5 364.5L769.5 364.5L796.5 364.5L823.5 364.5L850.5 364.5L877.5 391.5L904.5 391.5L931.5 391.5L958.5 391.5L985.5 391.5" stroke="rgba(189, 2, 189, 1)" stroke-width="4.5"></path><path d="M978.75 391.5 a6.75 6.75 0 1 0 13.5 0 a6.75 6.75 0 1 0 -13.5 0zM519.75 364.5 a6.75 6.75 0 1 0 13.5 0 a6.75 6.75 0 1 0 -13.5 0zM384.75 364.5 a6.75 6.75 0 1 0 13.5 0 a6.75 6.75 0 1 0 -13.5 0zM924.75 337.5 a6.75 6.75 0 1 0 13.5 0 a6.75 6.75 0 1 0 -13.5 0zM627.75 364.5 a6.75 6.75 0 1 0 13.5 0 a6.75 6.75 0 1 0 -13.5 0zM1032.75 364.5 a6.75 6.75 0 1 0 13.5 0 a6.75 6.75 0 1 0 -13.5 0zM357.75 364.5 a6.75 6.75 0 1 0 13.5 0 a6.75 6.75 0 1 0 -13.5 0zM330.75 364.5 a6.75 6.75 0 1 0 13.5 0 a6.75 6.75 0 1 0 -13.5 0zM492.75 364.5 a6.75 6.75 0 1 0 13.5 0 a6.75 6.75 0 1 0 -13.5 0zM897.75 310.5 a6.75 6.75 0 1 0 13.5 0 a6.75 6.75 0 1 0 -13.5 0z" fill="rgba(189, 2, 189, 1)"></path><path d="M148.5 553.5L175.5 526.5L202.5 526.5M202.5 553.5L229.5 580.5L256.5 580.5M175.5 553.5L202.5 580.5M-13.5 499.5L13.5 499.5L40.5 499.5L67.5 499.5L94.5 499.5L121.5 526.5L148.5 553.5L175.5 553.5L202.5 553.5L229.5 553.5" stroke="rgba(189, 2, 189, 1)" stroke-width="4.5"></path><path d="M222.75 553.5 a6.75 6.75 0 1 0 13.5 0 a6.75 6.75 0 1 0 -13.5 0zM195.75 526.5 a6.75 6.75 0 1 0 13.5 0 a6.75 6.75 0 1 0 -13.5 0zM249.75 580.5 a6.75 6.75 0 1 0 13.5 0 a6.75 6.75 0 1 0 -13.5 0zM195.75 580.5 a6.75 6.75 0 1 0 13.5 0 a6.75 6.75 0 1 0 -13.5 0z" fill="rgba(189, 2, 189, 1)"></path><path d="M94.5 391.5L121.5 364.5L148.5 337.5M688.5 337.5L715.5 310.5M67.5 391.5L94.5 364.5L121.5 337.5M580.5 337.5L607.5 310.5L634.5 310.5L661.5 310.5L688.5 310.5M553.5 337.5L580.5 310.5L607.5 283.5L634.5 283.5M283.5 364.5L310.5 364.5M472.5 337.5L499.5 310.5L526.5 310.5L553.5 310.5L580.5 283.5M-13.5 391.5L13.5 391.5L40.5 391.5L67.5 391.5L94.5 391.5L121.5 391.5L148.5 391.5L175.5 391.5L202.5 364.5L229.5 364.5L256.5 364.5L283.5 364.5L310.5 337.5L337.5 337.5L364.5 337.5L391.5 337.5L418.5 337.5L445.5 337.5L472.5 337.5L499.5 337.5L526.5 337.5L553.5 337.5L580.5 337.5L607.5 337.5L634.5 337.5L661.5 337.5L688.5 337.5L715.5 337.5L742.5 337.5" stroke="rgba(189, 2, 189, 1)" stroke-width="4.5"></path><path d="M735.75 337.5 a6.75 6.75 0 1 0 13.5 0 a6.75 6.75 0 1 0 -13.5 0zM141.75 337.5 a6.75 6.75 0 1 0 13.5 0 a6.75 6.75 0 1 0 -13.5 0zM708.75 310.5 a6.75 6.75 0 1 0 13.5 0 a6.75 6.75 0 1 0 -13.5 0zM114.75 337.5 a6.75 6.75 0 1 0 13.5 0 a6.75 6.75 0 1 0 -13.5 0zM681.75 310.5 a6.75 6.75 0 1 0 13.5 0 a6.75 6.75 0 1 0 -13.5 0zM627.75 283.5 a6.75 6.75 0 1 0 13.5 0 a6.75 6.75 0 1 0 -13.5 0zM303.75 364.5 a6.75 6.75 0 1 0 13.5 0 a6.75 6.75 0 1 0 -13.5 0zM573.75 283.5 a6.75 6.75 0 1 0 13.5 0 a6.75 6.75 0 1 0 -13.5 0z" fill="rgba(189, 2, 189, 1)"></path><path d="M67.5 526.5L94.5 553.5M-13.5 526.5L13.5 526.5L40.5 526.5L67.5 526.5L94.5 526.5L121.5 553.5L148.5 580.5" stroke="rgba(200, 220, 9, 1)" stroke-width="4.5"></path><path d="M141.75 580.5 a6.75 6.75 0 1 0 13.5 0 a6.75 6.75 0 1 0 -13.5 0zM87.75 553.5 a6.75 6.75 0 1 0 13.5 0 a6.75 6.75 0 1 0 -13.5 0z" fill="rgba(200, 220, 9, 1)"></path><path d="M-13.5 364.5L13.5 364.5" stroke="rgba(200, 220, 9, 1)" stroke-width="4.5"></path><path d="M6.75 364.5 a6.75 6.75 0 1 0 13.5 0 a6.75 6.75 0 1 0 -13.5 0z" fill="rgba(200, 220, 9, 1)"></path><path d="M-13.5 553.5L13.5 553.5L40.5 553.5" stroke="rgba(200, 220, 9, 1)" stroke-width="4.5"></path><path d="M33.75 553.5 a6.75 6.75 0 1 0 13.5 0 a6.75 6.75 0 1 0 -13.5 0z" fill="rgba(200, 220, 9, 1)"></path><path d="M-13.5 337.5L13.5 337.5" stroke="rgba(200, 220, 9, 1)" stroke-width="4.5"></path><path d="M6.75 337.5 a6.75 6.75 0 1 0 13.5 0 a6.75 6.75 0 1 0 -13.5 0z" fill="rgba(200, 220, 9, 1)"></path><path d="M796.5 688.5L823.5 661.5L850.5 661.5M256.5 607.5L283.5 634.5M661.5 661.5L688.5 634.5L715.5 634.5M175.5 607.5L202.5 634.5L229.5 661.5L256.5 661.5L283.5 661.5L310.5 661.5M364.5 607.5L391.5 634.5L418.5 634.5L445.5 634.5L472.5 661.5L499.5 661.5L526.5 661.5L553.5 661.5L580.5 661.5L607.5 688.5M229.5 607.5L256.5 634.5M499.5 634.5L526.5 607.5L553.5 607.5L580.5 607.5L607.5 607.5M67.5 607.5L94.5 580.5L121.5 580.5M-13.5 580.5L13.5 580.5L40.5 580.5L67.5 607.5L94.5 607.5L121.5 607.5L148.5 607.5L175.5 607.5L202.5 607.5L229.5 607.5L256.5 607.5L283.5 607.5L310.5 607.5L337.5 607.5L364.5 607.5L391.5 607.5L418.5 607.5L445.5 607.5L472.5 634.5L499.5 634.5L526.5 634.5L553.5 634.5L580.5 634.5L607.5 661.5L634.5 661.5L661.5 661.5L688.5 661.5L715.5 661.5L742.5 661.5L769.5 661.5L796.5 688.5L823.5 688.5L850.5 688.5" stroke="rgba(200, 220, 9, 1)" stroke-width="4.5"></path><path d="M843.75 688.5 a6.75 6.75 0 1 0 13.5 0 a6.75 6.75 0 1 0 -13.5 0zM843.75 661.5 a6.75 6.75 0 1 0 13.5 0 a6.75 6.75 0 1 0 -13.5 0zM276.75 634.5 a6.75 6.75 0 1 0 13.5 0 a6.75 6.75 0 1 0 -13.5 0zM708.75 634.5 a6.75 6.75 0 1 0 13.5 0 a6.75 6.75 0 1 0 -13.5 0zM303.75 661.5 a6.75 6.75 0 1 0 13.5 0 a6.75 6.75 0 1 0 -13.5 0zM600.75 688.5 a6.75 6.75 0 1 0 13.5 0 a6.75 6.75 0 1 0 -13.5 0zM249.75 634.5 a6.75 6.75 0 1 0 13.5 0 a6.75 6.75 0 1 0 -13.5 0zM600.75 607.5 a6.75 6.75 0 1 0 13.5 0 a6.75 6.75 0 1 0 -13.5 0zM114.75 580.5 a6.75 6.75 0 1 0 13.5 0 a6.75 6.75 0 1 0 -13.5 0z" fill="rgba(200, 220, 9, 1)"></path><path d="M121.5 310.5L148.5 283.5M202.5 337.5L229.5 310.5L256.5 310.5L283.5 310.5M67.5 310.5L94.5 283.5L121.5 283.5M-13.5 310.5L13.5 310.5L40.5 310.5L67.5 310.5L94.5 310.5L121.5 310.5L148.5 310.5L175.5 337.5L202.5 337.5L229.5 337.5L256.5 337.5L283.5 337.5L310.5 310.5L337.5 310.5L364.5 310.5" stroke="rgba(189, 2, 189, 1)" stroke-width="4.5"></path><path d="M357.75 310.5 a6.75 6.75 0 1 0 13.5 0 a6.75 6.75 0 1 0 -13.5 0zM141.75 283.5 a6.75 6.75 0 1 0 13.5 0 a6.75 6.75 0 1 0 -13.5 0zM276.75 310.5 a6.75 6.75 0 1 0 13.5 0 a6.75 6.75 0 1 0 -13.5 0zM114.75 283.5 a6.75 6.75 0 1 0 13.5 0 a6.75 6.75 0 1 0 -13.5 0z" fill="rgba(189, 2, 189, 1)"></path><path d="M148.5 661.5L175.5 634.5M121.5 661.5L148.5 634.5M67.5 634.5L94.5 634.5M-13.5 607.5L13.5 607.5L40.5 607.5L67.5 634.5L94.5 661.5L121.5 661.5L148.5 661.5L175.5 661.5L202.5 661.5" stroke="rgba(200, 220, 9, 1)" stroke-width="4.5"></path><path d="M195.75 661.5 a6.75 6.75 0 1 0 13.5 0 a6.75 6.75 0 1 0 -13.5 0zM168.75 634.5 a6.75 6.75 0 1 0 13.5 0 a6.75 6.75 0 1 0 -13.5 0zM141.75 634.5 a6.75 6.75 0 1 0 13.5 0 a6.75 6.75 0 1 0 -13.5 0zM87.75 634.5 a6.75 6.75 0 1 0 13.5 0 a6.75 6.75 0 1 0 -13.5 0z" fill="rgba(200, 220, 9, 1)"></path><path d="M-13.5 283.5L13.5 283.5" stroke="rgba(189, 2, 189, 1)" stroke-width="4.5"></path><path d="M6.75 283.5 a6.75 6.75 0 1 0 13.5 0 a6.75 6.75 0 1 0 -13.5 0z" fill="rgba(189, 2, 189, 1)"></path><path d="M472.5 715.5L499.5 688.5L526.5 688.5L553.5 688.5L580.5 688.5M310.5 688.5L337.5 715.5L364.5 742.5L391.5 742.5L418.5 742.5L445.5 742.5L472.5 742.5L499.5 742.5L526.5 742.5L553.5 742.5L580.5 742.5L607.5 742.5L634.5 742.5L661.5 742.5L688.5 742.5M364.5 715.5L391.5 688.5M661.5 715.5L688.5 688.5L715.5 688.5M823.5 715.5L850.5 742.5L877.5 769.5M202.5 688.5L229.5 715.5L256.5 715.5M445.5 715.5L472.5 688.5M715.5 715.5L742.5 742.5L769.5 742.5L796.5 742.5M-13.5 634.5L13.5 634.5L40.5 634.5L67.5 661.5L94.5 688.5L121.5 688.5L148.5 688.5L175.5 688.5L202.5 688.5L229.5 688.5L256.5 688.5L283.5 688.5L310.5 688.5L337.5 688.5L364.5 715.5L391.5 715.5L418.5 715.5L445.5 715.5L472.5 715.5L499.5 715.5L526.5 715.5L553.5 715.5L580.5 715.5L607.5 715.5L634.5 715.5L661.5 715.5L688.5 715.5L715.5 715.5L742.5 715.5L769.5 715.5L796.5 715.5L823.5 715.5L850.5 715.5L877.5 715.5L904.5 715.5" stroke="rgba(200, 220, 9, 1)" stroke-width="4.5"></path><path d="M897.75 715.5 a6.75 6.75 0 1 0 13.5 0 a6.75 6.75 0 1 0 -13.5 0zM573.75 688.5 a6.75 6.75 0 1 0 13.5 0 a6.75 6.75 0 1 0 -13.5 0zM681.75 742.5 a6.75 6.75 0 1 0 13.5 0 a6.75 6.75 0 1 0 -13.5 0zM384.75 688.5 a6.75 6.75 0 1 0 13.5 0 a6.75 6.75 0 1 0 -13.5 0zM708.75 688.5 a6.75 6.75 0 1 0 13.5 0 a6.75 6.75 0 1 0 -13.5 0zM870.75 769.5 a6.75 6.75 0 1 0 13.5 0 a6.75 6.75 0 1 0 -13.5 0zM249.75 715.5 a6.75 6.75 0 1 0 13.5 0 a6.75 6.75 0 1 0 -13.5 0zM465.75 688.5 a6.75 6.75 0 1 0 13.5 0 a6.75 6.75 0 1 0 -13.5 0zM789.75 742.5 a6.75 6.75 0 1 0 13.5 0 a6.75 6.75 0 1 0 -13.5 0z" fill="rgba(200, 220, 9, 1)"></path><path d="M418.5 256.5L445.5 283.5L472.5 283.5L499.5 283.5L526.5 283.5L553.5 283.5M40.5 256.5L67.5 283.5M391.5 256.5L418.5 283.5L445.5 310.5L472.5 310.5M661.5 256.5L688.5 283.5L715.5 283.5L742.5 283.5M364.5 283.5L391.5 310.5L418.5 310.5M148.5 256.5L175.5 256.5L202.5 256.5M-13.5 256.5L13.5 256.5L40.5 256.5L67.5 256.5L94.5 256.5L121.5 256.5L148.5 256.5L175.5 283.5L202.5 283.5L229.5 283.5L256.5 283.5L283.5 283.5L310.5 283.5L337.5 283.5L364.5 283.5L391.5 256.5L418.5 256.5L445.5 256.5L472.5 256.5L499.5 256.5L526.5 256.5L553.5 256.5L580.5 256.5L607.5 256.5L634.5 256.5L661.5 256.5L688.5 256.5L715.5 256.5" stroke="rgba(200, 220, 9, 1)" stroke-width="4.5"></path><path d="M708.75 256.5 a6.75 6.75 0 1 0 13.5 0 a6.75 6.75 0 1 0 -13.5 0zM546.75 283.5 a6.75 6.75 0 1 0 13.5 0 a6.75 6.75 0 1 0 -13.5 0zM60.75 283.5 a6.75 6.75 0 1 0 13.5 0 a6.75 6.75 0 1 0 -13.5 0zM465.75 310.5 a6.75 6.75 0 1 0 13.5 0 a6.75 6.75 0 1 0 -13.5 0zM735.75 283.5 a6.75 6.75 0 1 0 13.5 0 a6.75 6.75 0 1 0 -13.5 0zM411.75 310.5 a6.75 6.75 0 1 0 13.5 0 a6.75 6.75 0 1 0 -13.5 0zM195.75 256.5 a6.75 6.75 0 1 0 13.5 0 a6.75 6.75 0 1 0 -13.5 0z" fill="rgba(200, 220, 9, 1)"></path><path d="M94.5 715.5L121.5 742.5L148.5 742.5M13.5 661.5L40.5 688.5L67.5 715.5L94.5 742.5L121.5 769.5M-13.5 661.5L13.5 661.5L40.5 661.5L67.5 688.5L94.5 715.5L121.5 715.5L148.5 715.5" stroke="rgba(189, 2, 189, 1)" stroke-width="4.5"></path><path d="M141.75 715.5 a6.75 6.75 0 1 0 13.5 0 a6.75 6.75 0 1 0 -13.5 0zM141.75 742.5 a6.75 6.75 0 1 0 13.5 0 a6.75 6.75 0 1 0 -13.5 0zM114.75 769.5 a6.75 6.75 0 1 0 13.5 0 a6.75 6.75 0 1 0 -13.5 0z" fill="rgba(189, 2, 189, 1)"></path><path d="M634.5 229.5L661.5 229.5L688.5 229.5L715.5 229.5M67.5 229.5L94.5 202.5L121.5 202.5L148.5 202.5L175.5 202.5L202.5 202.5M310.5 256.5L337.5 229.5L364.5 229.5L391.5 202.5L418.5 202.5M796.5 229.5L823.5 202.5M40.5 229.5L67.5 202.5M256.5 256.5L283.5 229.5L310.5 202.5L337.5 202.5L364.5 202.5L391.5 175.5M688.5 202.5L715.5 175.5L742.5 175.5L769.5 175.5L796.5 148.5L823.5 148.5L850.5 148.5L877.5 148.5L904.5 148.5L931.5 148.5M499.5 229.5L526.5 202.5L553.5 202.5L580.5 202.5M472.5 229.5L499.5 202.5L526.5 175.5M-13.5 229.5L13.5 229.5L40.5 229.5L67.5 229.5L94.5 229.5L121.5 229.5L148.5 229.5L175.5 229.5L202.5 229.5L229.5 256.5L256.5 256.5L283.5 256.5L310.5 256.5L337.5 256.5L364.5 256.5L391.5 229.5L418.5 229.5L445.5 229.5L472.5 229.5L499.5 229.5L526.5 229.5L553.5 229.5L580.5 229.5L607.5 229.5L634.5 229.5L661.5 202.5L688.5 202.5L715.5 202.5L742.5 229.5L769.5 229.5L796.5 229.5L823.5 229.5L850.5 256.5L877.5 283.5L904.5 283.5L931.5 310.5L958.5 310.5" stroke="rgba(200, 220, 9, 1)" stroke-width="4.5"></path><path d="M951.75 310.5 a6.75 6.75 0 1 0 13.5 0 a6.75 6.75 0 1 0 -13.5 0zM708.75 229.5 a6.75 6.75 0 1 0 13.5 0 a6.75 6.75 0 1 0 -13.5 0zM195.75 202.5 a6.75 6.75 0 1 0 13.5 0 a6.75 6.75 0 1 0 -13.5 0zM411.75 202.5 a6.75 6.75 0 1 0 13.5 0 a6.75 6.75 0 1 0 -13.5 0zM816.75 202.5 a6.75 6.75 0 1 0 13.5 0 a6.75 6.75 0 1 0 -13.5 0zM60.75 202.5 a6.75 6.75 0 1 0 13.5 0 a6.75 6.75 0 1 0 -13.5 0zM384.75 175.5 a6.75 6.75 0 1 0 13.5 0 a6.75 6.75 0 1 0 -13.5 0zM924.75 148.5 a6.75 6.75 0 1 0 13.5 0 a6.75 6.75 0 1 0 -13.5 0zM573.75 202.5 a6.75 6.75 0 1 0 13.5 0 a6.75 6.75 0 1 0 -13.5 0zM519.75 175.5 a6.75 6.75 0 1 0 13.5 0 a6.75 6.75 0 1 0 -13.5 0z" fill="rgba(200, 220, 9, 1)"></path></g></g><defs><mask id="SvgjsMask1814"><rect width="1440" height="900" fill="#ffffff"></rect></mask><linearGradient x1="50%" y1="100%" x2="50%" y2="0%" gradientUnits="userSpaceOnUse" id="SvgjsLinearGradient1815"><stop stop-color="#0e2a47" offset="0"></stop><stop stop-color="rgba(2, 22, 48, 1)" offset="1"></stop></linearGradient><mask id="SvgjsMask1816"><rect width="1440" height="900" fill="white"></rect><path d="M874.12 418.5 a3.38 3.38 0 1 0 6.76 0 a3.38 3.38 0 1 0 -6.76 0zM469.12 445.5 a3.38 3.38 0 1 0 6.76 0 a3.38 3.38 0 1 0 -6.76 0zM604.12 445.5 a3.38 3.38 0 1 0 6.76 0 a3.38 3.38 0 1 0 -6.76 0zM307.12 445.5 a3.38 3.38 0 1 0 6.76 0 a3.38 3.38 0 1 0 -6.76 0zM361.12 445.5 a3.38 3.38 0 1 0 6.76 0 a3.38 3.38 0 1 0 -6.76 0zM847.12 391.5 a3.38 3.38 0 1 0 6.76 0 a3.38 3.38 0 1 0 -6.76 0zM982.12 445.5 a3.38 3.38 0 1 0 6.76 0 a3.38 3.38 0 1 0 -6.76 0zM550.12 445.5 a3.38 3.38 0 1 0 6.76 0 a3.38 3.38 0 1 0 -6.76 0zM280.12 445.5 a3.38 3.38 0 1 0 6.76 0 a3.38 3.38 0 1 0 -6.76 0z" fill="black"></path><path d="M1171.12 472.5 a3.38 3.38 0 1 0 6.76 0 a3.38 3.38 0 1 0 -6.76 0zM847.12 445.5 a3.38 3.38 0 1 0 6.76 0 a3.38 3.38 0 1 0 -6.76 0zM1171.12 526.5 a3.38 3.38 0 1 0 6.76 0 a3.38 3.38 0 1 0 -6.76 0zM604.12 472.5 a3.38 3.38 0 1 0 6.76 0 a3.38 3.38 0 1 0 -6.76 0zM469.12 526.5 a3.38 3.38 0 1 0 6.76 0 a3.38 3.38 0 1 0 -6.76 0zM874.12 553.5 a3.38 3.38 0 1 0 6.76 0 a3.38 3.38 0 1 0 -6.76 0zM415.12 526.5 a3.38 3.38 0 1 0 6.76 0 a3.38 3.38 0 1 0 -6.76 0zM1171.12 499.5 a3.38 3.38 0 1 0 6.76 0 a3.38 3.38 0 1 0 -6.76 0zM1171.12 445.5 a3.38 3.38 0 1 0 6.76 0 a3.38 3.38 0 1 0 -6.76 0zM577.12 472.5 a3.38 3.38 0 1 0 6.76 0 a3.38 3.38 0 1 0 -6.76 0zM253.12 499.5 a3.38 3.38 0 1 0 6.76 0 a3.38 3.38 0 1 0 -6.76 0zM982.12 472.5 a3.38 3.38 0 1 0 6.76 0 a3.38 3.38 0 1 0 -6.76 0z" fill="black"></path><path d="M982.12 391.5 a3.38 3.38 0 1 0 6.76 0 a3.38 3.38 0 1 0 -6.76 0zM523.12 364.5 a3.38 3.38 0 1 0 6.76 0 a3.38 3.38 0 1 0 -6.76 0zM388.12 364.5 a3.38 3.38 0 1 0 6.76 0 a3.38 3.38 0 1 0 -6.76 0zM928.12 337.5 a3.38 3.38 0 1 0 6.76 0 a3.38 3.38 0 1 0 -6.76 0zM631.12 364.5 a3.38 3.38 0 1 0 6.76 0 a3.38 3.38 0 1 0 -6.76 0zM1036.12 364.5 a3.38 3.38 0 1 0 6.76 0 a3.38 3.38 0 1 0 -6.76 0zM361.12 364.5 a3.38 3.38 0 1 0 6.76 0 a3.38 3.38 0 1 0 -6.76 0zM334.12 364.5 a3.38 3.38 0 1 0 6.76 0 a3.38 3.38 0 1 0 -6.76 0zM496.12 364.5 a3.38 3.38 0 1 0 6.76 0 a3.38 3.38 0 1 0 -6.76 0zM901.12 310.5 a3.38 3.38 0 1 0 6.76 0 a3.38 3.38 0 1 0 -6.76 0z" fill="black"></path><path d="M226.12 553.5 a3.38 3.38 0 1 0 6.76 0 a3.38 3.38 0 1 0 -6.76 0zM199.12 526.5 a3.38 3.38 0 1 0 6.76 0 a3.38 3.38 0 1 0 -6.76 0zM253.12 580.5 a3.38 3.38 0 1 0 6.76 0 a3.38 3.38 0 1 0 -6.76 0zM199.12 580.5 a3.38 3.38 0 1 0 6.76 0 a3.38 3.38 0 1 0 -6.76 0z" fill="black"></path><path d="M739.12 337.5 a3.38 3.38 0 1 0 6.76 0 a3.38 3.38 0 1 0 -6.76 0zM145.12 337.5 a3.38 3.38 0 1 0 6.76 0 a3.38 3.38 0 1 0 -6.76 0zM712.12 310.5 a3.38 3.38 0 1 0 6.76 0 a3.38 3.38 0 1 0 -6.76 0zM118.12 337.5 a3.38 3.38 0 1 0 6.76 0 a3.38 3.38 0 1 0 -6.76 0zM685.12 310.5 a3.38 3.38 0 1 0 6.76 0 a3.38 3.38 0 1 0 -6.76 0zM631.12 283.5 a3.38 3.38 0 1 0 6.76 0 a3.38 3.38 0 1 0 -6.76 0zM307.12 364.5 a3.38 3.38 0 1 0 6.76 0 a3.38 3.38 0 1 0 -6.76 0zM577.12 283.5 a3.38 3.38 0 1 0 6.76 0 a3.38 3.38 0 1 0 -6.76 0z" fill="black"></path><path d="M145.12 580.5 a3.38 3.38 0 1 0 6.76 0 a3.38 3.38 0 1 0 -6.76 0zM91.12 553.5 a3.38 3.38 0 1 0 6.76 0 a3.38 3.38 0 1 0 -6.76 0z" fill="black"></path><path d="M10.12 364.5 a3.38 3.38 0 1 0 6.76 0 a3.38 3.38 0 1 0 -6.76 0z" fill="black"></path><path d="M37.12 553.5 a3.38 3.38 0 1 0 6.76 0 a3.38 3.38 0 1 0 -6.76 0z" fill="black"></path><path d="M10.12 337.5 a3.38 3.38 0 1 0 6.76 0 a3.38 3.38 0 1 0 -6.76 0z" fill="black"></path><path d="M847.12 688.5 a3.38 3.38 0 1 0 6.76 0 a3.38 3.38 0 1 0 -6.76 0zM847.12 661.5 a3.38 3.38 0 1 0 6.76 0 a3.38 3.38 0 1 0 -6.76 0zM280.12 634.5 a3.38 3.38 0 1 0 6.76 0 a3.38 3.38 0 1 0 -6.76 0zM712.12 634.5 a3.38 3.38 0 1 0 6.76 0 a3.38 3.38 0 1 0 -6.76 0zM307.12 661.5 a3.38 3.38 0 1 0 6.76 0 a3.38 3.38 0 1 0 -6.76 0zM604.12 688.5 a3.38 3.38 0 1 0 6.76 0 a3.38 3.38 0 1 0 -6.76 0zM253.12 634.5 a3.38 3.38 0 1 0 6.76 0 a3.38 3.38 0 1 0 -6.76 0zM604.12 607.5 a3.38 3.38 0 1 0 6.76 0 a3.38 3.38 0 1 0 -6.76 0zM118.12 580.5 a3.38 3.38 0 1 0 6.76 0 a3.38 3.38 0 1 0 -6.76 0z" fill="black"></path><path d="M361.12 310.5 a3.38 3.38 0 1 0 6.76 0 a3.38 3.38 0 1 0 -6.76 0zM145.12 283.5 a3.38 3.38 0 1 0 6.76 0 a3.38 3.38 0 1 0 -6.76 0zM280.12 310.5 a3.38 3.38 0 1 0 6.76 0 a3.38 3.38 0 1 0 -6.76 0zM118.12 283.5 a3.38 3.38 0 1 0 6.76 0 a3.38 3.38 0 1 0 -6.76 0z" fill="black"></path><path d="M199.12 661.5 a3.38 3.38 0 1 0 6.76 0 a3.38 3.38 0 1 0 -6.76 0zM172.12 634.5 a3.38 3.38 0 1 0 6.76 0 a3.38 3.38 0 1 0 -6.76 0zM145.12 634.5 a3.38 3.38 0 1 0 6.76 0 a3.38 3.38 0 1 0 -6.76 0zM91.12 634.5 a3.38 3.38 0 1 0 6.76 0 a3.38 3.38 0 1 0 -6.76 0z" fill="black"></path><path d="M10.12 283.5 a3.38 3.38 0 1 0 6.76 0 a3.38 3.38 0 1 0 -6.76 0z" fill="black"></path><path d="M901.12 715.5 a3.38 3.38 0 1 0 6.76 0 a3.38 3.38 0 1 0 -6.76 0zM577.12 688.5 a3.38 3.38 0 1 0 6.76 0 a3.38 3.38 0 1 0 -6.76 0zM685.12 742.5 a3.38 3.38 0 1 0 6.76 0 a3.38 3.38 0 1 0 -6.76 0zM388.12 688.5 a3.38 3.38 0 1 0 6.76 0 a3.38 3.38 0 1 0 -6.76 0zM712.12 688.5 a3.38 3.38 0 1 0 6.76 0 a3.38 3.38 0 1 0 -6.76 0zM874.12 769.5 a3.38 3.38 0 1 0 6.76 0 a3.38 3.38 0 1 0 -6.76 0zM253.12 715.5 a3.38 3.38 0 1 0 6.76 0 a3.38 3.38 0 1 0 -6.76 0zM469.12 688.5 a3.38 3.38 0 1 0 6.76 0 a3.38 3.38 0 1 0 -6.76 0zM793.12 742.5 a3.38 3.38 0 1 0 6.76 0 a3.38 3.38 0 1 0 -6.76 0z" fill="black"></path><path d="M712.12 256.5 a3.38 3.38 0 1 0 6.76 0 a3.38 3.38 0 1 0 -6.76 0zM550.12 283.5 a3.38 3.38 0 1 0 6.76 0 a3.38 3.38 0 1 0 -6.76 0zM64.12 283.5 a3.38 3.38 0 1 0 6.76 0 a3.38 3.38 0 1 0 -6.76 0zM469.12 310.5 a3.38 3.38 0 1 0 6.76 0 a3.38 3.38 0 1 0 -6.76 0zM739.12 283.5 a3.38 3.38 0 1 0 6.76 0 a3.38 3.38 0 1 0 -6.76 0zM415.12 310.5 a3.38 3.38 0 1 0 6.76 0 a3.38 3.38 0 1 0 -6.76 0zM199.12 256.5 a3.38 3.38 0 1 0 6.76 0 a3.38 3.38 0 1 0 -6.76 0z" fill="black"></path><path d="M145.12 715.5 a3.38 3.38 0 1 0 6.76 0 a3.38 3.38 0 1 0 -6.76 0zM145.12 742.5 a3.38 3.38 0 1 0 6.76 0 a3.38 3.38 0 1 0 -6.76 0zM118.12 769.5 a3.38 3.38 0 1 0 6.76 0 a3.38 3.38 0 1 0 -6.76 0z" fill="black"></path><path d="M955.12 310.5 a3.38 3.38 0 1 0 6.76 0 a3.38 3.38 0 1 0 -6.76 0zM712.12 229.5 a3.38 3.38 0 1 0 6.76 0 a3.38 3.38 0 1 0 -6.76 0zM199.12 202.5 a3.38 3.38 0 1 0 6.76 0 a3.38 3.38 0 1 0 -6.76 0zM415.12 202.5 a3.38 3.38 0 1 0 6.76 0 a3.38 3.38 0 1 0 -6.76 0zM820.12 202.5 a3.38 3.38 0 1 0 6.76 0 a3.38 3.38 0 1 0 -6.76 0zM64.12 202.5 a3.38 3.38 0 1 0 6.76 0 a3.38 3.38 0 1 0 -6.76 0zM388.12 175.5 a3.38 3.38 0 1 0 6.76 0 a3.38 3.38 0 1 0 -6.76 0zM928.12 148.5 a3.38 3.38 0 1 0 6.76 0 a3.38 3.38 0 1 0 -6.76 0zM577.12 202.5 a3.38 3.38 0 1 0 6.76 0 a3.38 3.38 0 1 0 -6.76 0zM523.12 175.5 a3.38 3.38 0 1 0 6.76 0 a3.38 3.38 0 1 0 -6.76 0z" fill="black"></path></mask></defs></svg>